<svg width="64" height="64" viewBox="0 0 64 64" fill="none" xmlns="http://www.w3.org/2000/svg">
<rect width="64" height="64" fill="white"/>
<ellipse cx="32.0001" cy="30.6522" rx="22.6049" ry="8.4358" fill="black"/>
<path d="M32.0005 19.976C39.2698 19.976 45.8277 21.2195 50.5493 23.2103C52.9109 24.2061 54.7898 25.3788 56.0708 26.6556C57.3499 27.9307 58.0073 29.2816 58.0073 30.6527C58.0072 32.0236 57.3498 33.3738 56.0708 34.6488C54.7898 35.9257 52.9109 37.0984 50.5493 38.0941C45.8277 40.0849 39.2698 41.3285 32.0005 41.3285C24.7311 41.3285 18.1733 40.0849 13.4517 38.0941C11.0898 37.0983 9.21023 35.9258 7.9292 34.6488C6.65027 33.3739 5.99381 32.0236 5.99365 30.6527C5.99365 29.2816 6.65012 27.9307 7.9292 26.6556C9.21023 25.3786 11.0898 24.2062 13.4517 23.2103C18.1733 21.2195 24.7311 19.976 32.0005 19.976Z" stroke="black"/>
</svg>
